<svg id="Layer_1" data-name="Layer 1" xmlns="http://www.w3.org/2000/svg" viewBox="0 0 525 525"><defs><style>.cls-1,.cls-2{fill:none;stroke:#ffffff;stroke-miterlimit:10;}.cls-1{stroke-width:12px;}.cls-2{stroke-width:25px;}</style></defs><path class="cls-1" d="M185.32,409.14" transform="translate(-35.14 -35.14)"/><path class="cls-1" d="M522.46,409.14" transform="translate(-35.14 -35.14)"/><path class="cls-2" d="M521.46,409.14a249.44,249.44,0,0,1-47.05,65.27c-97.63,97.63-255.92,97.63-353.55,0-79-79-94.09-197.82-45.17-292a250,250,0,0,1,45.17-61.55c97.63-97.63,255.92-97.63,353.55,0C552.41,198.86,568.1,315.57,521.46,409.14Z" transform="translate(-35.14 -35.14)"/><polyline class="cls-2" points="439.27 85.72 377.72 147.28 150.99 374 85.72 439.27"/><polyline class="cls-2" points="487.33 374 486.33 374 150.99 374 150.17 374"/><line class="cls-2" x1="377.72" y1="147.28" x2="40.57" y2="147.28"/></svg>