<svg id="Layer_1" data-name="Layer 1" xmlns="http://www.w3.org/2000/svg" viewBox="0 0 525 525"><defs><style>.cls-1,.cls-2{fill:none;stroke:#ffffff;stroke-miterlimit:10;}.cls-1{stroke-width:12px;}.cls-2{stroke-width:25px;}</style></defs><path class="cls-1" d="M185.32,409.14" transform="translate(-35.14 -35.14)"/><path class="cls-1" d="M522.46,409.14" transform="translate(-35.14 -35.14)"/><path class="cls-2" d="M409.14,73.81a249.25,249.25,0,0,1,65.27,47.06c97.63,97.63,97.63,255.91,0,353.55-79,79-197.82,94.08-292,45.16a250,250,0,0,1-61.55-45.16c-97.63-97.64-97.63-255.92,0-353.55C198.86,42.87,315.57,27.18,409.14,73.81Z" transform="translate(-35.14 -35.14)"/><polyline class="cls-2" points="85.72 85.73 147.28 147.28 374 374 439.27 439.28"/><polyline class="cls-2" points="374 37.66 374 38.67 374 374 374 374.82"/><line class="cls-2" x1="147.28" y1="147.28" x2="147.28" y2="484.43"/></svg>